<mxfile host="app.diagrams.net" modified="2023-06-18T23:10:42.006Z" agent="Mozilla/5.0 (Windows NT 10.0; Win64; x64) AppleWebKit/537.36 (KHTML, like Gecko) Chrome/112.0.0.0 YaBrowser/23.5.2.625 Yowser/2.5 Safari/537.36" etag="xTJuc-ioNfj6uktjm3VM" version="21.5.0" type="device">
  <diagram name="Page-1" id="58cdce13-f638-feb5-8d6f-7d28b1aa9fa0">
    <mxGraphModel dx="1055" dy="580" grid="1" gridSize="10" guides="1" tooltips="1" connect="1" arrows="1" fold="1" page="1" pageScale="1" pageWidth="1100" pageHeight="850" background="none" math="0" shadow="0">
      <root>
        <mxCell id="0" />
        <mxCell id="1" parent="0" />
        <mxCell id="eW5s5pbNeIIrjUhp8iTb-4" value="" style="ellipse;html=1;shape=endState;fillColor=#000000;strokeColor=#000000;" vertex="1" parent="1">
          <mxGeometry x="415" y="470" width="30" height="30" as="geometry" />
        </mxCell>
        <mxCell id="eW5s5pbNeIIrjUhp8iTb-1" value="Стартовое меню" style="swimlane;fontStyle=1;align=center;verticalAlign=middle;childLayout=stackLayout;horizontal=1;startSize=30;horizontalStack=0;resizeParent=0;resizeLast=1;container=0;fontColor=#000000;collapsible=0;rounded=1;arcSize=30;strokeColor=#000000;fillColor=#FFFFFF;swimlaneFillColor=#FFFFFF;dropTarget=0;" vertex="1" parent="1">
          <mxGeometry x="350" y="340" width="160" height="60" as="geometry" />
        </mxCell>
        <mxCell id="eW5s5pbNeIIrjUhp8iTb-2" value="do/&amp;nbsp; Ожидает ввода пользователя" style="text;html=1;strokeColor=none;fillColor=none;align=center;verticalAlign=middle;spacingLeft=4;spacingRight=4;whiteSpace=wrap;overflow=hidden;rotatable=0;fontColor=#000000;" vertex="1" parent="eW5s5pbNeIIrjUhp8iTb-1">
          <mxGeometry y="30" width="160" height="30" as="geometry" />
        </mxCell>
        <mxCell id="2a3bc250acf0617d-3" value="" style="ellipse;html=1;shape=startState;fillColor=#000000;strokeColor=#000000;rounded=1;shadow=0;comic=0;labelBackgroundColor=none;fontFamily=Verdana;fontSize=12;fontColor=#000000;align=center;direction=south;" parent="1" vertex="1">
          <mxGeometry x="240" y="355" width="30" height="30" as="geometry" />
        </mxCell>
        <mxCell id="3cde6dad864a17aa-9" style="edgeStyle=elbowEdgeStyle;html=1;labelBackgroundColor=none;endArrow=open;endSize=8;strokeColor=#000000;fontFamily=Verdana;fontSize=12;align=left;entryX=0;entryY=0;entryDx=0;entryDy=0;" parent="1" source="2a3bc250acf0617d-3" target="eW5s5pbNeIIrjUhp8iTb-2" edge="1">
          <mxGeometry relative="1" as="geometry">
            <mxPoint x="380" y="370" as="targetPoint" />
          </mxGeometry>
        </mxCell>
        <mxCell id="eW5s5pbNeIIrjUhp8iTb-5" style="html=1;labelBackgroundColor=none;endArrow=open;endSize=8;strokeColor=#000000;fontFamily=Verdana;fontSize=12;align=left;entryX=0.5;entryY=0;entryDx=0;entryDy=0;exitX=0.5;exitY=1;exitDx=0;exitDy=0;" edge="1" parent="1" source="eW5s5pbNeIIrjUhp8iTb-2" target="eW5s5pbNeIIrjUhp8iTb-4">
          <mxGeometry relative="1" as="geometry">
            <mxPoint x="610" y="398.66999999999996" as="sourcePoint" />
            <mxPoint x="690" y="398.66999999999996" as="targetPoint" />
          </mxGeometry>
        </mxCell>
        <mxCell id="eW5s5pbNeIIrjUhp8iTb-6" value="Нажали Esc" style="edgeLabel;html=1;align=center;verticalAlign=middle;resizable=0;points=[];fontSize=12;" vertex="1" connectable="0" parent="eW5s5pbNeIIrjUhp8iTb-5">
          <mxGeometry x="0.1042" relative="1" as="geometry">
            <mxPoint x="39" y="3" as="offset" />
          </mxGeometry>
        </mxCell>
        <mxCell id="eW5s5pbNeIIrjUhp8iTb-11" value="Игра" style="swimlane;fontStyle=1;align=center;verticalAlign=middle;childLayout=stackLayout;horizontal=1;startSize=30;horizontalStack=0;resizeParent=0;resizeLast=1;container=0;fontColor=#000000;collapsible=0;rounded=1;arcSize=30;strokeColor=#000000;fillColor=#FFFFFF;swimlaneFillColor=#FFFFFF;dropTarget=0;" vertex="1" parent="1">
          <mxGeometry x="610" y="340" width="160" height="60" as="geometry" />
        </mxCell>
        <mxCell id="eW5s5pbNeIIrjUhp8iTb-12" value="do/&amp;nbsp; Ожидает ввода пользователя" style="text;html=1;strokeColor=none;fillColor=none;align=center;verticalAlign=middle;spacingLeft=4;spacingRight=4;whiteSpace=wrap;overflow=hidden;rotatable=0;fontColor=#000000;" vertex="1" parent="eW5s5pbNeIIrjUhp8iTb-11">
          <mxGeometry y="30" width="160" height="30" as="geometry" />
        </mxCell>
        <mxCell id="eW5s5pbNeIIrjUhp8iTb-13" style="edgeStyle=elbowEdgeStyle;html=1;labelBackgroundColor=none;endArrow=open;endSize=8;strokeColor=#000000;fontFamily=Verdana;fontSize=12;align=left;entryX=0;entryY=0;entryDx=0;entryDy=0;exitX=1;exitY=0;exitDx=0;exitDy=0;" edge="1" parent="1" source="eW5s5pbNeIIrjUhp8iTb-2" target="eW5s5pbNeIIrjUhp8iTb-12">
          <mxGeometry relative="1" as="geometry">
            <mxPoint x="530" y="420" as="sourcePoint" />
            <mxPoint x="610" y="420" as="targetPoint" />
          </mxGeometry>
        </mxCell>
        <mxCell id="eW5s5pbNeIIrjUhp8iTb-14" value="Нажали Enter" style="edgeLabel;html=1;align=center;verticalAlign=middle;resizable=0;points=[];fontSize=12;" vertex="1" connectable="0" parent="eW5s5pbNeIIrjUhp8iTb-13">
          <mxGeometry x="-0.3147" y="-1" relative="1" as="geometry">
            <mxPoint x="15" y="-16" as="offset" />
          </mxGeometry>
        </mxCell>
        <mxCell id="eW5s5pbNeIIrjUhp8iTb-15" style="edgeStyle=orthogonalEdgeStyle;html=1;labelBackgroundColor=none;endArrow=open;endSize=8;strokeColor=#000000;fontFamily=Verdana;fontSize=12;align=left;entryX=0.75;entryY=0;entryDx=0;entryDy=0;exitX=0.25;exitY=0;exitDx=0;exitDy=0;curved=1;" edge="1" parent="1" source="eW5s5pbNeIIrjUhp8iTb-1" target="eW5s5pbNeIIrjUhp8iTb-1">
          <mxGeometry relative="1" as="geometry">
            <mxPoint x="350" y="340" as="sourcePoint" />
            <mxPoint x="430" y="325" as="targetPoint" />
            <Array as="points">
              <mxPoint x="430" y="250" />
            </Array>
          </mxGeometry>
        </mxCell>
        <mxCell id="eW5s5pbNeIIrjUhp8iTb-23" value="Нажата любая клавиша&lt;br style=&quot;font-size: 12px;&quot;&gt;(за исключением Esc и Enter)" style="edgeLabel;html=1;align=center;verticalAlign=middle;resizable=0;points=[];fontSize=12;" vertex="1" connectable="0" parent="eW5s5pbNeIIrjUhp8iTb-15">
          <mxGeometry x="0.513" y="-6" relative="1" as="geometry">
            <mxPoint x="-15" y="-39" as="offset" />
          </mxGeometry>
        </mxCell>
        <mxCell id="eW5s5pbNeIIrjUhp8iTb-17" style="edgeStyle=orthogonalEdgeStyle;html=1;labelBackgroundColor=none;endArrow=open;endSize=8;strokeColor=#000000;fontFamily=Verdana;fontSize=12;align=left;entryX=0.75;entryY=0;entryDx=0;entryDy=0;exitX=0.25;exitY=0;exitDx=0;exitDy=0;curved=1;" edge="1" parent="1" source="eW5s5pbNeIIrjUhp8iTb-11" target="eW5s5pbNeIIrjUhp8iTb-11">
          <mxGeometry relative="1" as="geometry">
            <mxPoint x="645" y="337.20000000000005" as="sourcePoint" />
            <mxPoint x="725" y="337.20000000000005" as="targetPoint" />
            <Array as="points">
              <mxPoint x="645" y="340" />
              <mxPoint x="645" y="277" />
              <mxPoint x="730" y="277" />
            </Array>
          </mxGeometry>
        </mxCell>
        <mxCell id="eW5s5pbNeIIrjUhp8iTb-22" value="&lt;font style=&quot;font-size: 12px;&quot;&gt;Нажата любая клавиша&lt;br&gt;(за исключением Esc)&lt;br&gt;&lt;/font&gt;" style="edgeLabel;html=1;align=center;verticalAlign=middle;resizable=0;points=[];" vertex="1" connectable="0" parent="eW5s5pbNeIIrjUhp8iTb-17">
          <mxGeometry x="0.2357" y="-5" relative="1" as="geometry">
            <mxPoint x="-31" y="-22" as="offset" />
          </mxGeometry>
        </mxCell>
        <mxCell id="eW5s5pbNeIIrjUhp8iTb-19" value="" style="ellipse;html=1;shape=endState;fillColor=#000000;strokeColor=#000000;" vertex="1" parent="1">
          <mxGeometry x="675" y="470" width="30" height="30" as="geometry" />
        </mxCell>
        <mxCell id="eW5s5pbNeIIrjUhp8iTb-20" style="html=1;labelBackgroundColor=none;endArrow=open;endSize=8;strokeColor=#000000;fontFamily=Verdana;fontSize=12;align=left;entryX=0.5;entryY=0;entryDx=0;entryDy=0;exitX=0.5;exitY=1;exitDx=0;exitDy=0;" edge="1" parent="1" target="eW5s5pbNeIIrjUhp8iTb-19" source="eW5s5pbNeIIrjUhp8iTb-12">
          <mxGeometry relative="1" as="geometry">
            <mxPoint x="690" y="410" as="sourcePoint" />
            <mxPoint x="950" y="408.66999999999996" as="targetPoint" />
          </mxGeometry>
        </mxCell>
        <mxCell id="eW5s5pbNeIIrjUhp8iTb-21" value="Нажали Esc" style="edgeLabel;html=1;align=center;verticalAlign=middle;resizable=0;points=[];fontSize=12;" vertex="1" connectable="0" parent="eW5s5pbNeIIrjUhp8iTb-20">
          <mxGeometry x="0.1042" relative="1" as="geometry">
            <mxPoint x="39" y="3" as="offset" />
          </mxGeometry>
        </mxCell>
      </root>
    </mxGraphModel>
  </diagram>
</mxfile>
